{
  "accessors": [
    {
      "bufferView": 0,
      "componentType": 5125,
      "count": 2124,
      "type": "SCALAR"
    },
    {
      "bufferView": 1,
      "componentType": 5126,
      "count": 1455,
      "max": [
        105.200119018555,
        400.7353515625,
        5.87251329421997
      ],
      "min": [
        -105.200119018555,
        0.0,
        -7.7652587890625
      ],
      "type": "VEC3"
    },
    {
      "bufferView": 2,
      "componentType": 5126,
      "count": 1455,
      "type": "VEC3"
    },
    {
      "bufferView": 3,
      "componentType": 5126,
      "count": 1455,
      "type": "VEC4"
    },
    {
      "bufferView": 4,
      "componentType": 5126,
      "count": 1455,
      "type": "VEC2"
    }
  ],
  "asset": {
    "generator": "Adobe Substance 3D Painter 11.1.3",
    "version": "2.0"
  },
  "bufferViews": [
    {
      "buffer": 0,
      "byteLength": 8496,
      "target": 34963
    },
    {
      "buffer": 0,
      "byteLength": 17460,
      "byteOffset": 8496,
      "target": 34962
    },
    {
      "buffer": 0,
      "byteLength": 17460,
      "byteOffset": 25956,
      "target": 34962
    },
    {
      "buffer": 0,
      "byteLength": 23280,
      "byteOffset": 43416,
      "target": 34962
    },
    {
      "buffer": 0,
      "byteLength": 11640,
      "byteOffset": 66696,
      "target": 34962
    }
  ],
  "buffers": [
    {
      "byteLength": 78336,
      "uri": "metal gate.bin"
    }
  ],
  "images": [
    {
      "uri": "openPBR_shader1_baseColor.png"
    },
    {
      "uri": "openPBR_shader1_occlusionRoughnessMetallic.png"
    },
    {
      "uri": "openPBR_shader1_normal.png"
    }
  ],
  "materials": [
    {
      "alphaMode": "OPAQUE",
      "name": "openPBR_shader1",
      "normalTexture": {
        "index": 2
      },
      "occlusionTexture": {
        "index": 1
      },
      "pbrMetallicRoughness": {
        "baseColorTexture": {
          "index": 0
        },
        "metallicRoughnessTexture": {
          "index": 1
        }
      }
    }
  ],
  "meshes": [
    {
      "name": "metal_gate2_pCube16",
      "primitives": [
        {
          "attributes": {
            "NORMAL": 2,
            "POSITION": 1,
            "TANGENT": 3,
            "TEXCOORD_0": 4
          },
          "indices": 0,
          "material": 0,
          "mode": 4
        }
      ]
    }
  ],
  "nodes": [
    {
      "children": [
        1,
        24
      ],
      "name": "RootNode",
      "scale": [
        0.00999999977648258,
        0.00999999977648258,
        0.00999999977648258
      ]
    },
    {
      "children": [
        2,
        3,
        4,
        5,
        6,
        7,
        8,
        9,
        10,
        12,
        13,
        14,
        15,
        16,
        17,
        18,
        19,
        20,
        21,
        22,
        23
      ],
      "name": "metal_gate2"
    },
    {
      "name": "pCube16",
      "translation": [
        64.5608520507812,
        204.259216308594,
        0.0
      ]
    },
    {
      "name": "pCube13",
      "rotation": [
        0.0,
        0.380065560340881,
        0.0,
        0.924959540367126
      ],
      "scale": [
        1.48072528839111,
        1.0,
        1.59969115257263
      ],
      "translation": [
        -65.8898391723633,
        204.259216308594,
        0.0
      ]
    },
    {
      "name": "pCube10",
      "translation": [
        0.0,
        5.12322822032729e-06,
        0.0
      ]
    },
    {
      "name": "pCube11",
      "translation": [
        0.0,
        204.259216308594,
        0.0
      ]
    },
    {
      "name": "pCube17",
      "rotation": [
        0.0,
        0.0,
        -0.70710676908493,
        0.70710676908493
      ],
      "translation": [
        91.6909484863281,
        278.793518066406,
        0.0
      ]
    },
    {
      "name": "pCube18",
      "rotation": [
        0.0,
        0.0,
        -0.70710676908493,
        0.70710676908493
      ],
      "translation": [
        91.6909484863281,
        85.7165374755859,
        0.0
      ]
    },
    {
      "name": "pCube12",
      "scale": [
        1.02655124664307,
        1.02655124664307,
        1.02655124664307
      ],
      "translation": [
        -33.413402557373,
        204.259216308594,
        0.0
      ]
    },
    {
      "name": "pCube14",
      "rotation": [
        0.0,
        0.380065560340881,
        0.0,
        0.924959540367126
      ],
      "scale": [
        1.48072528839111,
        1.0,
        1.59969115257263
      ],
      "translation": [
        31.8647384643555,
        204.259216308594,
        0.0
      ]
    },
    {
      "children": [
        11
      ],
      "name": "group5"
    },
    {
      "name": "polySurface3",
      "scale": [
        1.1047602891922,
        1.1047602891922,
        0.437241077423096
      ],
      "translation": [
        -9.82332611083984,
        -20.6811065673828,
        -0.00365072675049305
      ]
    },
    {
      "name": "pSphere13",
      "rotation": [
        0.0,
        0.132336720824242,
        0.0,
        0.991204798221588
      ],
      "scale": [
        2.30935382843018,
        1.17539668083191,
        2.30935382843018
      ],
      "translation": [
        64.7195739746094,
        38.5986328125,
        -0.344024211168289
      ]
    },
    {
      "name": "pSphere14",
      "rotation": [
        0.0,
        0.132336720824242,
        0.0,
        0.991204798221588
      ],
      "scale": [
        2.30935382843018,
        1.17539668083191,
        2.30935382843018
      ],
      "translation": [
        64.7195739746094,
        121.869644165039,
        -0.344024211168289
      ]
    },
    {
      "name": "pSphere15",
      "rotation": [
        0.0,
        0.132336720824242,
        0.0,
        0.991204798221588
      ],
      "scale": [
        2.30935382843018,
        1.17539668083191,
        2.30935382843018
      ],
      "translation": [
        64.7195739746094,
        253.765670776367,
        -0.344024211168289
      ]
    },
    {
      "name": "pSphere16",
      "rotation": [
        0.0,
        0.132336720824242,
        0.0,
        0.991204798221588
      ],
      "scale": [
        2.30935382843018,
        1.17539668083191,
        2.30935382843018
      ],
      "translation": [
        64.7195739746094,
        362.568817138672,
        -0.344024211168289
      ]
    },
    {
      "name": "pSphere17",
      "rotation": [
        0.0,
        0.132336720824242,
        0.0,
        0.991204798221588
      ],
      "scale": [
        2.30935382843018,
        1.17539668083191,
        2.30935382843018
      ],
      "translation": [
        -33.3909530639648,
        253.765670776367,
        -0.344024211168289
      ]
    },
    {
      "name": "pSphere18",
      "rotation": [
        0.0,
        0.132336720824242,
        0.0,
        0.991204798221588
      ],
      "scale": [
        2.30935382843018,
        1.17539668083191,
        2.30935382843018
      ],
      "translation": [
        -33.3909530639648,
        121.869644165039,
        -0.344024211168289
      ]
    },
    {
      "name": "pSphere19",
      "rotation": [
        0.0,
        0.132336720824242,
        0.0,
        0.991204798221588
      ],
      "scale": [
        2.30935382843018,
        1.17539668083191,
        2.30935382843018
      ],
      "translation": [
        -33.3909530639648,
        38.5986328125,
        -0.344024211168289
      ]
    },
    {
      "name": "pSphere20",
      "rotation": [
        0.0,
        0.132336720824242,
        0.0,
        0.991204798221588
      ],
      "scale": [
        2.30935382843018,
        1.17539668083191,
        2.30935382843018
      ],
      "translation": [
        -33.3909530639648,
        362.568817138672,
        -0.344024211168289
      ]
    },
    {
      "name": "pSphere21",
      "rotation": [
        0.0,
        0.132336720824242,
        0.0,
        0.991204798221588
      ],
      "scale": [
        2.30935382843018,
        1.17539668083191,
        2.30935382843018
      ],
      "translation": [
        -0.0239831749349833,
        145.293609619141,
        -0.344024211168289
      ]
    },
    {
      "name": "pSphere22",
      "rotation": [
        0.0,
        0.132336720824242,
        0.0,
        0.991204798221588
      ],
      "scale": [
        2.30935382843018,
        1.17539668083191,
        2.30935382843018
      ],
      "translation": [
        -0.0239831749349833,
        62.0226058959961,
        -0.344024211168289
      ]
    },
    {
      "name": "pSphere23",
      "rotation": [
        0.0,
        0.132336720824242,
        0.0,
        0.991204798221588
      ],
      "scale": [
        2.30935382843018,
        1.17539668083191,
        2.30935382843018
      ],
      "translation": [
        -0.0239831749349833,
        318.315002441406,
        -0.344024211168289
      ]
    },
    {
      "name": "pSphere24",
      "rotation": [
        0.0,
        0.132336720824242,
        0.0,
        0.991204798221588
      ],
      "scale": [
        2.30935382843018,
        1.17539668083191,
        2.30935382843018
      ],
      "translation": [
        -0.0239831749349833,
        209.783309936523,
        -0.344024211168289
      ]
    },
    {
      "children": [
        25
      ],
      "name": "metal_gate2_pCube16"
    },
    {
      "mesh": 0,
      "name": "metal_gate2_pCube16"
    }
  ],
  "samplers": [
    {
      "magFilter": 9729,
      "minFilter": 9985,
      "wrapS": 10497,
      "wrapT": 10497
    }
  ],
  "scene": 0,
  "scenes": [
    {
      "name": "Scene",
      "nodes": [
        0
      ]
    }
  ],
  "textures": [
    {
      "sampler": 0,
      "source": 0
    },
    {
      "sampler": 0,
      "source": 1
    },
    {
      "sampler": 0,
      "source": 2
    }
  ]
}