{
  "accessors": [
    {
      "bufferView": 0,
      "componentType": 5125,
      "count": 2568,
      "type": "SCALAR"
    },
    {
      "bufferView": 1,
      "componentType": 5126,
      "count": 1376,
      "max": [
        259.510589599609,
        359.083374023438,
        29.1948280334473
      ],
      "min": [
        -259.696868896484,
        -1.52587890625e-05,
        -29.1948280334473
      ],
      "type": "VEC3"
    },
    {
      "bufferView": 2,
      "componentType": 5126,
      "count": 1376,
      "type": "VEC3"
    },
    {
      "bufferView": 3,
      "componentType": 5126,
      "count": 1376,
      "type": "VEC4"
    },
    {
      "bufferView": 4,
      "componentType": 5126,
      "count": 1376,
      "type": "VEC2"
    }
  ],
  "asset": {
    "generator": "Adobe Substance 3D Painter 11.1.3",
    "version": "2.0"
  },
  "bufferViews": [
    {
      "buffer": 0,
      "byteLength": 10272,
      "target": 34963
    },
    {
      "buffer": 0,
      "byteLength": 16512,
      "byteOffset": 10272,
      "target": 34962
    },
    {
      "buffer": 0,
      "byteLength": 16512,
      "byteOffset": 26784,
      "target": 34962
    },
    {
      "buffer": 0,
      "byteLength": 22016,
      "byteOffset": 43296,
      "target": 34962
    },
    {
      "buffer": 0,
      "byteLength": 11008,
      "byteOffset": 65312,
      "target": 34962
    }
  ],
  "buffers": [
    {
      "byteLength": 76320,
      "uri": "torigate.bin"
    }
  ],
  "images": [
    {
      "uri": "openPBR_shader1_baseColor.png"
    },
    {
      "uri": "openPBR_shader1_occlusionRoughnessMetallic.png"
    },
    {
      "uri": "openPBR_shader1_normal.png"
    }
  ],
  "materials": [
    {
      "alphaMode": "OPAQUE",
      "name": "openPBR_shader1",
      "normalTexture": {
        "index": 2
      },
      "occlusionTexture": {
        "index": 1
      },
      "pbrMetallicRoughness": {
        "baseColorTexture": {
          "index": 0
        },
        "metallicRoughnessTexture": {
          "index": 1
        }
      }
    }
  ],
  "meshes": [
    {
      "name": "toriigate1_pillars_pillar_right",
      "primitives": [
        {
          "attributes": {
            "NORMAL": 2,
            "POSITION": 1,
            "TANGENT": 3,
            "TEXCOORD_0": 4
          },
          "indices": 0,
          "material": 0,
          "mode": 4
        }
      ]
    }
  ],
  "nodes": [
    {
      "children": [
        1,
        12
      ],
      "name": "RootNode",
      "scale": [
        0.00999999977648258,
        0.00999999977648258,
        0.00999999977648258
      ]
    },
    {
      "children": [
        2,
        5
      ],
      "name": "toriigate1"
    },
    {
      "children": [
        3,
        4
      ],
      "name": "pillars"
    },
    {
      "name": "pillar_right"
    },
    {
      "name": "pillar_left"
    },
    {
      "children": [
        6,
        7,
        8,
        9,
        10,
        11
      ],
      "name": "beam",
      "translation": [
        0.0,
        239.395767211914,
        0.0
      ]
    },
    {
      "name": "pCube4"
    },
    {
      "name": "pCube5"
    },
    {
      "name": "pCube6",
      "rotation": [
        1.0,
        -0.0,
        -0.0,
        0.0
      ],
      "scale": [
        -1.0,
        -1.0,
        -1.0
      ],
      "translation": [
        0.148191586136818,
        0.0,
        0.0
      ]
    },
    {
      "name": "bottom_beam",
      "translation": [
        0.0,
        53.8708152770996,
        0.0
      ]
    },
    {
      "name": "top_beam",
      "scale": [
        1.07870578765869,
        1.07870578765869,
        1.23040461540222
      ],
      "translation": [
        0.0,
        75.3235626220703,
        0.0
      ]
    },
    {
      "name": "pCube9",
      "translation": [
        0.0,
        -212.707443237305,
        0.0
      ]
    },
    {
      "children": [
        13
      ],
      "name": "toriigate1_pillars_pillar_right"
    },
    {
      "mesh": 0,
      "name": "toriigate1_pillars_pillar_right"
    }
  ],
  "samplers": [
    {
      "magFilter": 9729,
      "minFilter": 9985,
      "wrapS": 10497,
      "wrapT": 10497
    }
  ],
  "scene": 0,
  "scenes": [
    {
      "name": "Scene",
      "nodes": [
        0
      ]
    }
  ],
  "textures": [
    {
      "sampler": 0,
      "source": 0
    },
    {
      "sampler": 0,
      "source": 1
    },
    {
      "sampler": 0,
      "source": 2
    }
  ]
}